<svg width="48" height="48" viewBox="0 0 48 48" fill="none" xmlns="http://www.w3.org/2000/svg">
<rect width="48" height="48" rx="8" fill="#F5F2E6"/>
<g clip-path="url(#clip0_56_239)">
<path fill-rule="evenodd" clip-rule="evenodd" d="M32.25 23.25C32.0427 23.2505 31.8358 23.2677 31.6313 23.3016L31.0856 21.8822C31.4676 21.7945 31.8581 21.7502 32.25 21.75C32.6642 21.75 33 21.4142 33 21C33 20.5858 32.6642 20.25 32.25 20.25H30.4575L29.2003 16.9809C29.0889 16.6911 28.8105 16.4999 28.5 16.5H25.5C25.0858 16.5 24.75 16.8358 24.75 17.25C24.75 17.6642 25.0858 18 25.5 18H27.9853L28.8506 20.25H26.25C24.5156 20.25 23.1094 20.6541 22.1841 21.4181C21.7399 21.7764 21.1308 21.8517 20.6128 21.6122C19.6209 21.1613 14.9184 19.2497 14.5041 19.0875L13.9688 18.8775C13.8196 18.8123 13.6616 18.7693 13.5 18.75C13.1393 18.7509 12.8303 19.0084 12.7644 19.3631C12.6986 19.7178 12.8945 20.0691 13.2309 20.1994C13.2741 20.2163 17.655 21.915 19.9931 22.9772C21.0333 23.4504 22.2517 23.2947 23.1394 22.575C23.595 22.2 24.5053 21.75 26.2509 21.75H28.0153C26.9205 22.6289 26.1281 23.8284 25.7494 25.1803C25.5629 25.8182 24.9758 26.2549 24.3112 26.25H19.425C19.04 24.3638 17.2892 23.0755 15.3739 23.269C13.4585 23.4625 12.0008 25.0749 12.0008 27C12.0008 28.9251 13.4585 30.5375 15.3739 30.731C17.2892 30.9245 19.04 29.6362 19.425 27.75H24.3112C25.6478 27.7529 26.8241 26.869 27.1931 25.5844C27.571 24.2412 28.4679 23.1038 29.6859 22.4231L30.2316 23.8416C28.66 24.8474 28.0671 26.8556 28.8402 28.5538C29.6133 30.252 31.5173 31.1234 33.3078 30.5986C35.0984 30.0739 36.2307 28.3125 35.9649 26.4657C35.699 24.6189 34.1159 23.2484 32.25 23.25ZM15.75 27.75H17.8706C17.5053 28.7832 16.4489 29.4029 15.3688 29.2176C14.2888 29.0323 13.4993 28.0958 13.4993 27C13.4993 25.9042 14.2888 24.9677 15.3688 24.7824C16.4489 24.5971 17.5053 25.2168 17.8706 26.25H15.75C15.3358 26.25 15 26.5858 15 27C15 27.4142 15.3358 27.75 15.75 27.75ZM32.25 29.25C31.3087 29.2488 30.4677 28.6619 30.1419 27.7788C29.8161 26.8957 30.0744 25.9031 30.7894 25.2909L31.5497 27.2691C31.6983 27.6558 32.1323 27.8489 32.5191 27.7003C32.9058 27.5517 33.0989 27.1177 32.9503 26.7309L32.1891 24.75H32.25C33.4926 24.75 34.5 25.7574 34.5 27C34.5 28.2426 33.4926 29.25 32.25 29.25Z" fill="#1C1A0D"/>
</g>
<defs>
<clipPath id="clip0_56_239">
<rect width="24" height="24" fill="white" transform="translate(12 12)"/>
</clipPath>
</defs>
</svg>
