<svg width="48" height="48" viewBox="0 0 48 48" fill="none" xmlns="http://www.w3.org/2000/svg">
<rect width="48" height="48" rx="8" fill="#F5F2E8"/>
<g clip-path="url(#clip0_57_657)">
<path fill-rule="evenodd" clip-rule="evenodd" d="M27 13.5C24.5989 13.5022 22.3437 14.6528 20.9328 16.5957C19.5219 18.5386 19.1256 21.0392 19.8666 23.3231L14.4694 28.7194C14.3288 28.8601 14.2498 29.051 14.25 29.25V33C14.25 33.4142 14.5858 33.75 15 33.75H18.75C19.1642 33.75 19.5 33.4142 19.5 33V31.5H21C21.4142 31.5 21.75 31.1642 21.75 30.75V29.25H23.25C23.449 29.2502 23.6399 29.1712 23.7806 29.0306L24.6769 28.1334C27.4932 29.0478 30.584 28.2196 32.5657 26.0194C34.5474 23.8192 35.0491 20.659 33.8462 17.9533C32.6433 15.2475 29.9611 13.5028 27 13.5ZM27 27C26.2408 27.0013 25.4883 26.8578 24.7828 26.5772C24.5004 26.4546 24.1718 26.5171 23.9541 26.7347L22.9397 27.75H21C20.5858 27.75 20.25 28.0858 20.25 28.5V30H18.75C18.3358 30 18 30.3358 18 30.75V32.25H15.75V29.5603L21.2653 24.0459C21.4829 23.8282 21.5454 23.4996 21.4228 23.2172C20.4492 20.7689 21.1867 17.9719 23.241 16.322C25.2953 14.6721 28.1855 14.5555 30.3661 16.0344C32.5466 17.5134 33.5072 20.2419 32.734 22.7607C31.9608 25.2795 29.6348 26.9992 27 27ZM30 19.125C30 19.7463 29.4963 20.25 28.875 20.25C28.2537 20.25 27.75 19.7463 27.75 19.125C27.75 18.5037 28.2537 18 28.875 18C29.4963 18 30 18.5037 30 19.125Z" fill="#1C1A0D"/>
</g>
<defs>
<clipPath id="clip0_57_657">
<rect width="24" height="24" fill="white" transform="translate(12 12)"/>
</clipPath>
</defs>
</svg>
