<svg width="48" height="48" viewBox="0 0 48 48" fill="none" xmlns="http://www.w3.org/2000/svg">
<rect width="48" height="48" rx="8" fill="#F5F2E8"/>
<g clip-path="url(#clip0_57_641)">
<path fill-rule="evenodd" clip-rule="evenodd" d="M32.6503 26.8631C32.433 26.726 32.1606 26.7098 31.9284 26.82C31.1406 27.1926 30.1999 26.9732 29.6581 26.2906C29.1164 25.608 29.1164 24.642 29.6581 23.9594C30.1999 23.2768 31.1406 23.0574 31.9284 23.43C32.1608 23.5403 32.4335 23.5238 32.6509 23.3863C32.8683 23.2488 33.0001 23.0094 33 22.7522V18.75C33 17.9216 32.3284 17.25 31.5 17.25H28.1044C28.1183 17.1255 28.1252 17.0003 28.125 16.875C28.1236 15.9434 27.7384 15.0535 27.06 14.415C26.1115 13.5241 24.7353 13.258 23.5229 13.7309C22.3106 14.2038 21.4782 15.3315 21.3834 16.6294C21.369 16.8362 21.3734 17.0439 21.3966 17.25H18C17.1716 17.25 16.5 17.9216 16.5 18.75V21.7706C16.3755 21.7567 16.2503 21.7498 16.125 21.75C15.1934 21.7515 14.3036 22.1367 13.665 22.815C13.0216 23.4946 12.6922 24.4126 12.7566 25.3462C12.8677 27.0275 14.1992 28.3706 15.8794 28.4963C16.0862 28.5111 16.294 28.5067 16.5 28.4831V31.5C16.5 32.3284 17.1716 33 18 33H31.5C32.3284 33 33 32.3284 33 31.5V27.4978C33.0002 27.2402 32.8681 27.0006 32.6503 26.8631ZM31.5 31.5H18V27.4978C18.0001 27.2406 17.8683 27.0012 17.6509 26.8637C17.4335 26.7262 17.1608 26.7097 16.9284 26.82C16.1406 27.1926 15.1999 26.9732 14.6581 26.2906C14.1164 25.608 14.1164 24.642 14.6581 23.9594C15.1999 23.2768 16.1406 23.0574 16.9284 23.43C17.1608 23.5403 17.4335 23.5238 17.6509 23.3863C17.8683 23.2488 18.0001 23.0094 18 22.7522V18.75H22.3772C22.6344 18.7501 22.8738 18.6183 23.0113 18.4009C23.1488 18.1835 23.1653 17.9108 23.055 17.6784C22.6824 16.8906 22.9018 15.9499 23.5844 15.4081C24.267 14.8664 25.233 14.8664 25.9156 15.4081C26.5982 15.9499 26.8176 16.8906 26.445 17.6784C26.3347 17.9108 26.3512 18.1835 26.4887 18.4009C26.6262 18.6183 26.8656 18.7501 27.1228 18.75H31.5V21.7716C31.294 21.748 31.0862 21.7436 30.8794 21.7584C29.065 21.8869 27.6788 23.4302 27.745 25.2479C27.8112 27.0656 29.3061 28.5039 31.125 28.5C31.2503 28.5002 31.3755 28.4933 31.5 28.4794V31.5Z" fill="#1C1A0D"/>
</g>
<defs>
<clipPath id="clip0_57_641">
<rect width="24" height="24" fill="white" transform="translate(12 12)"/>
</clipPath>
</defs>
</svg>
