<svg width="48" height="48" viewBox="0 0 48 48" fill="none" xmlns="http://www.w3.org/2000/svg">
<rect width="48" height="48" rx="8" fill="#F5F2E8"/>
<g clip-path="url(#clip0_57_675)">
<path fill-rule="evenodd" clip-rule="evenodd" d="M24 14.25C18.6152 14.25 14.25 18.6152 14.25 24C14.25 29.3848 18.6152 33.75 24 33.75C29.3848 33.75 33.75 29.3848 33.75 24C33.7443 18.6176 29.3824 14.2557 24 14.25ZM21.5278 27.75H26.4722C25.9688 29.4694 25.125 31.0191 24 32.2397C22.875 31.0191 22.0312 29.4694 21.5278 27.75ZM21.1875 26.25C20.9388 24.7603 20.9388 23.2397 21.1875 21.75H26.8125C27.0612 23.2397 27.0612 24.7603 26.8125 26.25H21.1875ZM15.75 24C15.7493 23.2392 15.8544 22.4819 16.0622 21.75H19.6678C19.4441 23.2417 19.4441 24.7583 19.6678 26.25H16.0622C15.8544 25.5181 15.7493 24.7608 15.75 24ZM26.4722 20.25H21.5278C22.0312 18.5306 22.875 16.9809 24 15.7603C25.125 16.9809 25.9688 18.5306 26.4722 20.25ZM28.3322 21.75H31.9378C32.3541 23.2211 32.3541 24.7789 31.9378 26.25H28.3322C28.5559 24.7583 28.5559 23.2417 28.3322 21.75ZM31.3472 20.25H28.0256C27.6429 18.7439 27.0001 17.3162 26.1263 16.0312C28.3838 16.6379 30.28 18.1701 31.3472 20.25ZM21.8737 16.0312C20.9999 17.3162 20.3571 18.7439 19.9744 20.25H16.6528C17.72 18.1701 19.6162 16.6379 21.8737 16.0312ZM16.6528 27.75H19.9744C20.3571 29.2561 20.9999 30.6838 21.8737 31.9688C19.6162 31.3621 17.72 29.8299 16.6528 27.75ZM26.1263 31.9688C27.0001 30.6838 27.6429 29.2561 28.0256 27.75H31.3472C30.28 29.8299 28.3838 31.3621 26.1263 31.9688Z" fill="#1C1A0D"/>
</g>
<defs>
<clipPath id="clip0_57_675">
<rect width="24" height="24" fill="white" transform="translate(12 12)"/>
</clipPath>
</defs>
</svg>
